<?xml version="1.0" encoding="UTF-8"?>
<svg id="Calque_1" data-name="Calque 1" xmlns="http://www.w3.org/2000/svg" xmlns:xlink="http://www.w3.org/1999/xlink" viewBox="0 0 1024.35 994.73">
  <defs>
    <style>
      .cls-1 {
        fill: url(#Dégradé_sans_nom_17-2);
      }

      .cls-2 {
        fill: #6c63fe;
      }

      .cls-3 {
        fill: url(#Dégradé_sans_nom_17-3);
      }

      .cls-4 {
        fill: #fefefe;
      }

      .cls-5 {
        fill: url(#Dégradé_sans_nom_17);
      }
    </style>
    <linearGradient id="Dégradé_sans_nom_17" data-name="Dégradé sans nom 17" x1="512.18" y1="980.44" x2="512.18" y2="15.97" gradientUnits="userSpaceOnUse">
      <stop offset="0" stop-color="#7658ff"/>
      <stop offset="1" stop-color="#4f8dff"/>
    </linearGradient>
    <linearGradient id="Dégradé_sans_nom_17-2" data-name="Dégradé sans nom 17" x1="529.3" y1="632.77" x2="529.3" y2="285" xlink:href="#Dégradé_sans_nom_17"/>
    <linearGradient id="Dégradé_sans_nom_17-3" data-name="Dégradé sans nom 17" x1="512.35" y1="632.77" x2="512.35" y2="285" xlink:href="#Dégradé_sans_nom_17"/>
  </defs>
  <path class="cls-5" d="M1024.14,456.52l.06-139.44-.4-45.8c-.45-50.37-4.73-108.3-30.35-153.5-5.12-9.03-9.78-17.11-16.74-24.95-3.09-3.48-4.8-8.31-8.37-11.8-7.94-7.76-14.81-16.46-23.82-23.23l-9.91-7.45c-4.55-3.42-10.93-3.78-12.95-9.88-34.78-22.82-92.62-37.03-133.28-38.17l-9.2-.26c-10.46-.29-19.76-1.79-30.89-1.8L281.83,0c-55.96-.03-107.56,3.69-157.4,29.73-25.36,13.25-48.98,28.69-66.79,51.14l-6.5,8.19c-1.8,2.27-4.29,4.63-6.18,7.12-18.15,23.98-29.71,51.44-35.71,80.99-4.3,21.17-6.98,41.57-7.67,63.2l-1.37,43.12-.22,150.4,1.45,314.94c.17,37.58,9.25,94.45,29.36,126.21,4.52,13.21,22.53,31.74,24.75,35.45,5.83,9.75,14.63,15.61,22.41,22.94,33.66,31.72,86.5,50.36,131.56,56.35,17.76,2.36,34.13,3.78,52.13,3.9l160.92,1.04,289.6-.02c80.62,0,163.46-.08,227.78-54.56,10.38-8.87,21.22-16.89,28.91-28.33,1.94-2.88,4.41-4.56,6.47-7.3,18.34-24.31,31.75-51.57,39-81.34,5.68-23.37,8.72-45.97,8.94-70.15l1.07-120.79-.22-175.73ZM319.08,858.43c-16.77,11.72-37.75,10.71-55.04-.53-4.91-3.19-7.86-5.53-11.06-10.77-7.58-12.42-12.16-26.64-7.56-41.49,8.1-26.13,36.53-40.88,62.03-31.81,9.55,3.4,16.11,9.82,22.75,16.4,13.83,13.71,14.03,50.63-11.13,68.2ZM382.65,913.29c-9.58,4.46-23.5-.2-29.48-10.06-5.06-8.35-4.2-17.69-.13-26.15,1.99-4.13,3.92-5.09,7.77-7.05,12.75-6.53,27.67-3.08,34.48,9.93,6.35,12.12.61,27.18-12.64,33.34ZM847.57,431.13c-3.51,22.91-13.47,43.16-24.18,63.6l-4.15,7.92-6.02,7.3c-2.68,3.25-4,5.59-6.73,8.45-8.63,9-16.87,17.75-26.1,26.08-2.92,2.64-5.55,5.45-8.4,8.96,9.69,32.4,11.82,65.49,3.97,98.6-4.12,17.41-12.48,34.42-22.58,49.24-8.31,12.19-19.01,21.2-29.68,31.11-5.99,5.56-13.57,9.7-20.87,13.96-27.34,16-58.61,20.91-89.86,19.85-5.01-.17-8.13-.32-12.85-1.43-20.92-4.94-40.47-11.63-58.65-23.13-4.11-2.6-8.08-3.7-11.41-7.91-1.56-1.97-5.71-1.77-7.35-4.45-2.21-3.62-5.93-6-9.91-6.15-3.23-.12-7.88,2.39-10.26,5.36-3.34,4.2-6.73,5.3-10.83,8.13-58.1,40.11-136.24,40.89-191.83-4.77-14.84-12.19-28.57-27.99-37.61-45.62-20.65-40.26-21.97-87.03-9.12-130.54,1.99-6.76-5.88-9.78-9.73-13.08-26.82-22.97-37.31-37.42-54.07-67.45.21-3.18-1.55-6.14-2.83-9.45-17.76-46.15-14.41-93.01,12.36-134.69,2.23-3.48,3.57-5.5,6.6-8.33,5.7-5.31,10.82-11.41,16.73-16.66l8.44-7.49c3.6-3.2,5.91-4.51,9.7-6.79,33.15-19.99,66.83-27.02,105.64-28.49,6.57-.25,12.48-2.45,14.94-9.11,4.2-11.38,10.32-21.76,15.51-32.8,4.06-8.64,15.59-24.6,21.7-30.74l22.78-22.88c2.37-2.38,4.49-3.04,7.17-5.15,41.93-33.07,99.71-39.48,147.39-14.66,8.26,4.3,16.26,8.66,22.91,14.6l22.6,20.17c2.38,2.13,3,3.78,4.86,6.05,15.66,19.03,28.08,39.35,36.88,62.64,1.75,4.62,5.37,9.83,10.72,10.2,40.65,2.82,68.01,7.66,103.84,26.81,7.77,4.15,14.97,9.36,20.99,15.09,4.48.15,7.27,2.36,9.93,6.22,3.1,4.5,12.6,10.8,11.54,13.91,1.46.44,3.22,2.02,4.29,2.98.07,1.43.4,3.05,1.53,4.64,20.73,29.31,27.47,64.16,21.99,99.88Z"/>
  <g>
    <path class="cls-2" d="M819.76,323.62c-6.14-7.37-14.48-13.48-21.47-20.13,4.48.15,7.27,2.36,9.93,6.22,3.1,4.5,12.6,10.8,11.54,13.91Z"/>
    <path class="cls-4" d="M798.28,303.49c6.99,6.65,15.33,12.76,21.47,20.13,1.46.44,3.22,2.02,4.29,2.98.07,1.43.4,3.05,1.53,4.64,20.73,29.31,27.47,64.16,21.99,99.88-3.51,22.91-13.47,43.16-24.18,63.6l-4.15,7.92-6.02,7.3c-2.68,3.25-4,5.59-6.73,8.45-8.63,9-16.87,17.75-26.1,26.08-2.92,2.64-5.55,5.45-8.4,8.96,9.69,32.4,11.82,65.49,3.97,98.6-4.12,17.41-12.48,34.42-22.58,49.24-8.31,12.19-19.01,21.2-29.68,31.11-5.99,5.56-13.57,9.7-20.87,13.96-27.34,16-58.61,20.91-89.86,19.85-5.01-.17-8.13-.32-12.85-1.43-20.92-4.94-40.47-11.63-58.65-23.13-4.11-2.6-8.08-3.7-11.41-7.91-1.56-1.97-5.71-1.77-7.35-4.45-2.21-3.62-5.93-6-9.91-6.15-3.23-.12-7.88,2.39-10.26,5.36-3.34,4.2-6.73,5.3-10.83,8.13-58.1,40.11-136.24,40.89-191.83-4.77-14.84-12.19-28.57-27.99-37.61-45.62-20.65-40.26-21.97-87.03-9.12-130.54,1.99-6.76-5.88-9.78-9.73-13.08-26.82-22.97-37.31-37.42-54.07-67.45.21-3.18-1.55-6.14-2.83-9.45-17.76-46.15-14.41-93.01,12.36-134.69,2.23-3.48,3.57-5.5,6.6-8.33,5.7-5.31,10.82-11.41,16.73-16.66l8.44-7.49c3.6-3.2,5.91-4.51,9.7-6.79,33.15-19.99,66.83-27.02,105.64-28.49,6.57-.25,12.48-2.45,14.94-9.11,4.2-11.38,10.32-21.76,15.51-32.8,4.06-8.64,15.59-24.6,21.7-30.74l22.78-22.88c2.37-2.38,4.49-3.04,7.17-5.15,41.93-33.07,99.71-39.48,147.39-14.66,8.26,4.3,16.26,8.66,22.91,14.59l22.6,20.17c2.38,2.13,3,3.78,4.86,6.05,15.66,19.03,28.08,39.35,36.88,62.64,1.75,4.62,5.37,9.83,10.72,10.2,40.65,2.82,68.01,7.66,103.84,26.81,7.77,4.15,14.97,9.36,20.99,15.09ZM356.55,459.34c12.67,14.13,20.95,20.63,34.64,36.63,5.84,6.82-.69,28.82-2.83,39.05l-14.35,68.75c-1.99,9.51,2.65,18.34,9.01,23.46,7.46,6.01,18.11,9,26.92,4.03l93.86-52.92c5.14-2.9,10.7-3.22,15.81-.42l41.96,23.08c1.31.72,46.72,26.79,43.71,24.41,9.46,7.49,19.97,10.9,31.03,5.08,9.86-5.19,15.82-16.12,13.28-28.42l-19.03-91.86c-1.31-6.33-.03-12.52,4.48-17.04l62.83-63.17c2.07-2.08,3.19-3.62,4.2-5.7,1.88-3.89,5.33-8.48,5.87-13.36,1.8-16.5-12.18-27.81-27.67-28.53-9.92-.46-19.07-1.21-28.77-2.13l-65.79-6.24c-6.46-.61-12.91-4.03-15.78-10.17l-43.12-92.13c-2.73-5.82-9.82-7.77-15.03-7.95-5.27-.19-11.3,3.08-14.64,8.78-8.89,15.17-14.95,33.2-21.19,45.01-7.45,14.11-13.64,28.61-20.02,43.13-8.12,18.48-26.27,11.53-46.61,16.2-4.49,1.03-7.47,2.24-12.38,1.58-12.3-1.65-37.94,5.29-48.58,4.75-11.49-.58-21.39,1.72-27.57,11.59-5.43,8.67-6.09,21.95,1.8,30.25,11.23,11.8,22.54,23.42,34.01,34.26Z"/>
    <g>
      <path class="cls-1" d="M702.04,424.28c-1.01,2.09-2.13,3.63-4.2,5.7l-62.83,63.17c-4.5,4.53-5.79,10.71-4.48,17.04l19.03,91.86c2.55,12.3-3.42,23.24-13.28,28.42-11.06,5.82-21.57,2.41-31.03-5.08,3.01,2.38-42.4-23.69-43.71-24.41l-41.96-23.08c-5.11-2.81-10.67-2.48-15.81.42l-93.86,52.92c-8.81,4.97-19.46,1.98-26.92-4.03-6.36-5.12-10.99-13.95-9.01-23.46l14.35-68.75c2.14-10.24,8.66-32.23,2.83-39.05-13.69-16-21.97-22.5-34.64-36.63l28.7,27.15c5.26,1.59,11.67-2.28,16.52-3.49l23.35-5.85c4.1-1.03,7.31-.55,10.82-3.45,5.23-4.32,11.82-6.16,18.84-6.48,5.13-.24,10.79-4.28,15.53-3.37,8.64,3.06,15.98,1.51,24.68-.81l13.28-3.54c2.75-.73,5.09,3.9,7.28,3.44,7.57-1.59,14.76-7.28,29.04-6.91,2.54.07,4.16-3.55,6.84-3.66,4.44-.17,9.6.65,12.64-3.22,2.99-3.79,7.83-4.95,12.46-6.57l8.68-3.05c-26.35,9.25,68.82-13.78,44.47-9.25l14.53-2.7c9.04-1.68,18.57-5.49,27.76-3.17,3.69.93,7.16-1.86,10.75-1.35,6.72.95,13.34,3.03,19.32,1.22Z"/>
      <path class="cls-3" d="M702.04,424.28c-5.98,1.81-12.6-.27-19.32-1.22-3.59-.51-7.06,2.28-10.75,1.35-9.19-2.32-18.71,1.49-27.76,3.17l-14.53,2.7c24.35-4.53-70.82,18.5-44.47,9.25l-8.68,3.05c-4.63,1.63-9.47,2.78-12.46,6.57-3.05,3.87-8.2,3.05-12.64,3.22-2.68.1-4.31,3.72-6.84,3.66-14.28-.37-21.48,5.32-29.04,6.91-2.19.46-4.53-4.18-7.28-3.44l-13.28,3.54c-8.7,2.32-16.04,3.87-24.68.81-4.73-.91-10.39,3.13-15.53,3.37-7.02.32-13.61,2.16-18.84,6.48-3.51,2.89-6.72,2.42-10.82,3.45l-23.35,5.85c-4.84,1.21-11.26,5.08-16.52,3.49l-28.7-27.15c-11.46-10.84-22.78-22.46-34.01-34.26-7.89-8.29-7.24-21.57-1.8-30.25,6.19-9.87,16.08-12.17,27.57-11.59,10.64.54,36.28-6.4,48.58-4.75,4.92.66,7.89-.55,12.38-1.58,20.34-4.68,38.5,2.27,46.61-16.2,6.38-14.52,12.57-29.03,20.02-43.13,6.24-11.82,12.3-29.84,21.19-45.01,3.34-5.7,9.37-8.96,14.64-8.78,5.21.18,12.3,2.13,15.03,7.95l43.12,92.13c2.87,6.14,9.32,9.56,15.78,10.17l65.79,6.24c9.69.92,18.85,1.67,28.77,2.13,15.49.72,29.47,12.03,27.67,28.53-.53,4.87-3.99,9.47-5.87,13.36Z"/>
    </g>
    <g>
      <path class="cls-4" d="M330.21,790.23c13.83,13.71,14.03,50.63-11.13,68.2-16.77,11.72-37.75,10.71-55.04-.53-4.91-3.19-7.86-5.53-11.06-10.77-7.58-12.42-12.16-26.64-7.56-41.49,8.1-26.13,36.53-40.88,62.03-31.81,9.55,3.4,16.11,9.82,22.75,16.4Z"/>
      <path class="cls-4" d="M382.65,913.29c-9.58,4.46-23.5-.2-29.48-10.06-5.06-8.35-4.2-17.69-.13-26.15,1.99-4.13,3.93-5.09,7.77-7.05,12.75-6.53,27.67-3.08,34.48,9.93,6.35,12.12.61,27.18-12.64,33.34Z"/>
    </g>
  </g>
</svg>