<?xml version="1.0" encoding="UTF-8"?>
<svg id="Calque_1" data-name="Calque 1" xmlns="http://www.w3.org/2000/svg" xmlns:xlink="http://www.w3.org/1999/xlink" viewBox="0 0 470.08 946.17">
  <defs>
    <style>
      .cls-1 {
        fill: url(#Dégradé_sans_nom_19);
      }
    </style>
    <linearGradient id="Dégradé_sans_nom_19" data-name="Dégradé sans nom 19" x1="233.67" y1="857.25" x2="236.41" y2="43.47" gradientUnits="userSpaceOnUse">
      <stop offset="0" stop-color="#755bff"/>
      <stop offset="1" stop-color="#4c95ff"/>
    </linearGradient>
  </defs>
  <path class="cls-1" d="M214.97,928.44l9.28-18.07c8.19-15.94-6.17-29.37-19.39-35.88-9.04-4.45-17.64-8.3-26.32-13.3-20.5-11.82-35.5-30.81-41.06-53.88-5.98-24.85,4.56-41.83,11.68-64.14-5.43-7.51-11.62-13.2-18.79-19.01-32.45-26.27-47.44-55.72-58.18-95.4C19.92,602.16-4.19,549.43,0,492.48c5.36-72.88,60.52-116.12,129.6-129.61-14.23-14.6-25.13-30.33-31.43-49.9-11.45,1.02-21.19-3.32-28.51-11.99-20.77-22.97-20.43-65.65,8.67-83.59-9.14-19.52-12.33-39.49-11.1-60.88,1.7-29.61,17.12-55.35,39.82-74.36,22.4-18.12,48.8-29.28,77.44-34.49,1.96-17.59,12.39-31.76,27.47-41.17,15.42-8.25,33.96-8.66,49.93-1.2,15.04,8.74,22.96,24.25,22.96,42.24,28.76,5.29,55.47,17.3,77.49,36.46,38.88,34.85,49.25,84.57,25.53,132.52,31.44,17.73,32.99,58.51,12.04,83.85-7.62,8.93-17.64,13.9-29.55,12.46-7.27,19.19-17.18,35.97-31.92,50.13,22.62,5.09,43.04,11.17,62.33,22.21,42.05,23.38,68.08,66,69.32,114.29,1.83,53.98-23.85,103.4-72.51,129.19-10.91,60.25-48.24,98.83-100.8,126.87-17.99,10.71-39.96,22.09-52.53,38.82-9.15,12.17,5.31,26.51,13.48,35.52,17.51,19.3,21.99,44.75,11.18,68.85-8.02,17.88-20.63,33.8-36.23,45.58-4.4,3.33-11.32,1.75-15.03-.98-3.89-2.87-5.56-9.23-2.66-14.87ZM249.24,44.33c-1.18-5.88-6.92-10.6-12.46-10.8-6.4-.24-12.38,3.67-14.04,10.4l26.51.41ZM140.81,174.04c38.29-19.84,86.8-57.21,104.59-98.47-33.76-3.25-77.94,5.19-106.79,22.86-34.69,22.02-49.63,53.75-35.32,94.12l37.51-18.52ZM363.89,192.12c12.29-33.96,4.2-60.75-20.82-84.15-17.7-15.24-39.06-24.96-61.9-28.51-5.11,17.24-12.52,32.01-24.34,44.74,16.51,17.34,35.73,30.07,56.24,42.07l50.82,25.85ZM318.72,333.49c20.38-23.05,31.54-52.21,32.72-83.06.38-9.89.19-19.38.04-28.99-44.38-21.86-81.58-39.31-117.62-74.17-36.4,35.53-72.83,53.78-117.96,74.71l.58,28.07c.53,25.6,8.67,49.75,22.95,70.87,14.42,21.32,34.95,36.25,59.6,43.53,42.89,12.66,89.3,3.42,119.7-30.96ZM88.17,279.26l-3.03-28.38c-4.78,4.53-3.02,26.56,3.03,28.38ZM381.11,279.74c7.38-8.13,7.04-19.59,3.22-27.49l-3.22,27.49ZM292.42,508.8l29.07-20.86,28.29-21.54c8.16-6.21,20.69-2.52,23.83,6.86,2.59,7.73-2.2,13.8-7.74,18.27l-34.35,27.77c11.67,3.51,23.05,7.03,33.41,12.47,6.78,3.56,6.62,13.17,3.84,18.35-3.58,6.67-11.09,8.88-18.07,6.93l-33.76-9.4-80.62-19.55c-22.17-5.38-43.87-7.29-66.53-10.31-13.94-1.86-28.19-.68-40.52,6.45-1.81,1.05-1.97,6.01-.84,7.58.98,1.35,3.9,2.84,6.01,3.25,11.88,2.28,22.65,4.96,33.76,9.51,20.34,8.34,39.03,18.24,58.27,28.91,35.91,19.93,71.06,37.96,113.49,37.79,34.93-.14,65.59-17.77,83.21-47.68,26.38-44.79,20.35-106.46-21.47-139.96-25.68-20.56-56.59-27.96-88.22-33.88-14.69,30.38-40.78,51.26-71.64,62.44-6.27,2.27-13.22,3.82-17.9-2.43l-2.27-10.35c-5.9-5.74-12.07-10.63-18.95-14.99l-28.5-18.09c-6.72-4.26-11.96-9.54-17.58-16.11-30.79,5.29-62.06,12.72-87.45,31.85-23.35,17.59-36.63,43.53-38.83,72.66-1.47,19.49.88,38.06,8.54,55.91,15.14,35.32,47.8,58.26,86.51,60.37,25.7,1.4,50.65-4.14,75.71-15.07-22.66-12.47-48.85-25.92-73-29.34-16.91-4.64-29.13-18.17-30.62-35.58-1.14-13.35,4.28-25.49,15.66-32.95-4.74-4.01-9.19-7.31-12.92-11.76-4.28-5.11-4.43-14.24,0-19.09,5.11-5.59,13.8-4.33,19.37-.37l27.72,19.71c28.85-.54,57.23,1.6,85.67,8.27l59.43,13.95ZM240.99,862.21c-4.05-12.32-13.66-18.66-19.71-28.16-13.39-14.97-15.38-34.72-5.42-52.19,6.84-12,16.71-21.61,28.27-29.65,14.29-9.93,28.78-18.27,43.76-27.19,31.83-18.96,63.43-45.28,72.88-83.88-15.27.23-28.84,1.51-42.91-.03-29.04-3.18-55.89-11.97-81.72-26-25.44,13.76-52.09,22-80.62,25.76-15.61,2.06-30.49,1-47.26.21,6.52,21.76,19.44,38.97,35.76,53.24,10.11,8.85,19.97,17.03,28.78,26.94,8.79,11.28,11.36,24.67,5.46,37.77l-7.21,16.01c-12.89,28.62,8.29,54,34.1,64.89,13.15,5.73,24.33,13.41,35.84,22.29ZM284.61,297.9c-2.2-1.92-8.12-2.37-10.7.19-20.82,20.7-56.29,20.56-77.23.85-3.69-3.47-9.94-3.26-12.87-.42-11.56,11.19,9.71,26.44,19.45,30.77,20.4,9.05,43.99,9.26,63.92-.82,8.47-4.28,16.12-10.23,20.42-18.94,2.09-4.22-.16-9.15-2.99-11.62ZM204.78,239.19c-3.88-2.41-9.72-1.64-13.3,2.09-7.43,7.73-18.19,7.26-25.39-.47-3.2-3.43-9.4-3.6-12.68-1.73-4.48,2.55-5.8,8.12-3.85,12.73,4.95,11.68,16.15,17.12,28.32,17.1s23.67-4.46,30.14-16.06c2.74-4.92,1.35-10.81-3.24-13.66ZM311.74,238.3c-3.67-.93-7.93.17-10.59,3.02-7.45,7.98-18,6.76-25.3-.56-3.6-3.61-10.16-3.6-13.43-1.17-4.5,3.33-5.16,9.09-2.52,13.63,6.46,11.07,17.6,15.76,29.99,15.68,12.79-.08,26-6.41,28.91-20.88.96-4.78-3.77-8.89-7.06-9.72Z"/>
</svg>