<svg xmlns="http://www.w3.org/2000/svg" viewBox="0 0 142.271824 71.853315" preserveAspectRatio="xMidYMid meet">
  <defs>
    <linearGradient id="grad_lampe" x1="0%" y1="0%" x2="100%" y2="100%">
      <stop offset="0%" stop-color="#3B3BFF"/>
      <stop offset="100%" stop-color="#7A3BFF"/>
    </linearGradient>
  </defs>
  <g transform="translate(-48.724454,153.870469) scale(0.100000,-0.100000)" fill="url(#grad_lampe)" stroke="none">
    <path d="M1221 1533 c-13 -3 -60 -40 -104 -84 -53 -53 -91 -82 -116 -89 -69
-19 -134 -12 -230 25 -132 51 -248 46 -280 -13 -11 -21 3 -52 23 -52 34 0 180
-87 270 -160 104 -85 204 -149 269 -171 20 -7 36 -16 35 -20 -2 -4 -19 -18
-38 -31 -38 -26 -49 -58 -27 -77 24 -19 146 -41 231 -41 101 0 200 17 228 39
28 24 18 61 -23 84 -35 20 -32 27 21 47 51 20 131 77 160 115 22 29 31 33 85
37 118 10 185 68 185 161 0 42 -5 53 -39 90 -36 39 -42 41 -93 41 -64 0 -100
-19 -130 -70 -18 -31 -22 -33 -37 -20 -9 8 -39 25 -68 39 -33 15 -63 39 -85
68 -56 74 -135 101 -237 82z m123 -57 c18 -8 45 -27 59 -42 24 -26 25 -29 9
-38 -21 -13 -208 -12 -240 0 -21 9 -21 11 -6 32 20 29 81 61 117 62 15 0 43
-6 61 -14z m483 -111 c12 -8 24 -28 28 -43 14 -67 -43 -122 -126 -122 -46 0
-46 0 -52 39 -7 54 1 87 30 116 30 29 86 34 120 10z m-1063 -38 c59 -26 84
-31 151 -31 68 -1 89 3 138 27 53 26 61 28 108 18 63 -14 210 -14 268 0 33 7
53 7 75 -2 51 -20 97 -60 113 -96 13 -32 12 -38 -7 -78 -44 -90 -185 -155
-337 -155 -163 0 -251 37 -438 185 -66 52 -148 110 -182 128 -35 17 -63 36
-63 40 0 16 103 -5 174 -36z m631 -404 l36 -30 -32 -7 c-40 -8 -222 -8 -272 0
l-37 7 31 31 30 32 104 -2 c99 -1 105 -3 140 -31z"/>
  </g>
</svg>
