<svg xmlns="http://www.w3.org/2000/svg" viewBox="0 0 141.029998 169.232476" preserveAspectRatio="xMidYMid meet">
  <defs>
    <linearGradient id="grad_genie" x1="0%" y1="0%" x2="100%" y2="100%">
      <stop offset="0%" stop-color="#3B3BFF"/>
      <stop offset="100%" stop-color="#7A3BFF"/>
    </linearGradient>
  </defs>
  <g transform="translate(-49.410769,206.818850) scale(0.100000,-0.100000)" fill="url(#grad_genie)" stroke="none">
    <path d="M1153 2060 c-88 -21 -151 -92 -160 -183 -6 -54 -7 -57 -42 -68 -259
-83 -416 -245 -451 -464 -16 -102 1 -198 54 -310 30 -61 47 -114 55 -165 24
-163 143 -336 287 -416 113 -63 166 -77 299 -78 148 -1 225 21 338 95 85 56
131 104 188 199 38 65 79 195 79 252 0 17 20 71 45 121 88 182 78 358 -30 521
-65 98 -210 199 -348 242 -40 12 -56 22 -53 31 3 8 1 36 -5 63 -15 70 -74 135
-142 155 -55 16 -66 17 -114 5z m105 -104 c30 -16 62 -65 62 -93 0 -23 -2 -23
-115 -23 l-115 0 0 26 c0 76 99 129 168 90z m41 -222 c2 -2 -11 -34 -29 -71
-25 -51 -58 -92 -129 -164 -95 -94 -184 -158 -368 -264 -56 -32 -96 -63 -112
-87 -14 -20 -30 -36 -36 -34 -19 5 -36 101 -32 183 8 142 70 243 203 332 119
80 297 126 439 114 33 -2 62 -6 64 -9z m238 -64 c204 -100 305 -283 263 -478
-16 -77 -26 -94 -42 -67 -21 36 -76 80 -156 125 -122 69 -233 143 -287 192
l-49 45 32 40 c35 45 77 124 88 166 6 26 10 28 38 23 17 -3 68 -24 113 -46z
m-264 -318 c92 -75 140 -107 257 -172 103 -57 135 -81 155 -120 57 -112 -3
-321 -127 -444 -176 -174 -430 -200 -639 -66 -167 108 -273 373 -204 510 20
38 52 63 155 121 114 63 185 111 265 178 33 27 62 50 63 50 2 1 36 -25 75 -57z"/>
    <path d="M880 985 c-31 -37 33 -95 106 -95 76 0 133 72 82 104 -13 8 -21 6
-35 -6 -31 -28 -66 -31 -95 -9 -31 25 -41 26 -58 6z"/>
    <path d="M1322 988 c-36 -36 14 -89 91 -96 47 -4 57 -1 85 23 35 30 39 60 11
78 -13 8 -23 5 -44 -11 -34 -27 -53 -27 -85 -2 -29 23 -41 25 -58 8z"/>
    <path d="M994 736 c-11 -29 2 -51 46 -78 66 -41 145 -55 217 -40 78 16 147 59
151 95 5 41 -21 44 -90 8 -83 -43 -153 -43 -233 -1 -64 33 -83 37 -91 16z"/>
  </g>
</svg>
