<?xml version="1.0" encoding="UTF-8"?>
<svg id="Calque_1" data-name="Calque 1" xmlns="http://www.w3.org/2000/svg" viewBox="0 0 1000 658.03">
  <path fill="white" d="M467.85,651.24c-19.6-2.93-73.32-13.79-75.44-34.61-2.99-29.25,73.07-28.46,75.73-57.03-179.05-41.45-227.59-194.18-410-215.85-4.96-.59-13.81-9.09-14.17-13.92-.36-4.83,4.99-14.97,9.44-17.24,52.81-26.95,109.76-26.67,164.89-7.67,90.68,31.26,133.4,48.2,230.37-1.78,71.89,21.74,143.19,18.39,215.95,3.77,32.35.35,63.84,21.17,94.75,32.7,10.08-45.62,36.15-78.52,78.1-91.45,47.14-14.53,99.35-4.46,135.74,29.64,35.42,33.2,34.96,85.53,3.32,121.44-25.45,28.87-59.97,42.04-100.57,47.22,13.35,25.06,4.16,50.22-18.86,61.2-28.48,13.59-57.44,1.89-73.51-29.17-34.93,43.44-80.18,66.23-132.15,79.9-11.18,26.6,68.72,26.8,72.62,55.59,2.45,18.06-38.34,30.61-54.3,33.59-67.23,12.59-134.24,13.77-201.88,3.64ZM938.91,386.03c32.67-16,39.3-60.63,14.87-87.98-32.13-35.98-92.96-43.42-126.87-6.53,30.99-4.76,58.02-12.82,85.33-.86,16.49,7.22,31.68,22.13,35.71,34.85,6.73,21.27-2.49,36.34-9.04,60.52ZM917.64,358.89c2.19-13.58-4.13-30.67-15.61-38.38-23.26-15.62-50.63-11.15-70.39,4.08-19.39,14.94-28.07,37.86-23.37,63.61l6,32.86c39.43-8.78,96.63-20.31,103.37-62.17ZM551.47,427.64c24.48-15.41,36.44-40.94,29.83-66.47,32.35-3.61,60.05-8.73,88.81-20.27-6.57-4.41-14.14-7.36-17.38-6.43-66.45,19.07-131.76,17.07-197.1-3.69-52.01,34.05-116.68,44.66-175.51,24.07l-87.97-30.77c-17.48-6.12-37.02-7.03-53.43-1.75,41.85,14.76,75.65,30.95,110.42,53.72,92.05,60.29,209.54,147.61,325.44,127.13-54.86-9.21-118.18-27.45-170.04-62.3,49.67,12.49,101.66,15.25,146.94-13.25ZM659.89,491.81c46-.37,133.76-50.41,109.14-99.73-5.74-11.5-19.29-26.48-36.51-25.97,23.5,21.74,26.7,48.24,7.07,71.34-20.9,24.59-50.95,38.08-79.69,54.35ZM547.56,606.77c6.56-31.37,71.68-14.36,76.75-36.91l-129.11-2.26c-8.74,18.35-23.2,31.52-46.1,42.22,56.93,27.49,141.85,23.69,200.1,6.99-36.6-.23-68.17,7.89-101.64-10.03Z"/>
  <path fill="white" d="M68.32,260.87c-35.62-2.63-61.64-35.11-67.36-70.04-5.59-34.15,13.64-63.99,43.29-80.63,65.45-36.74,134.6-19.91,138.11-60.34,2.21-25.43-21.33-36.63-43.25-47.65,23.62-5.89,50.54.29,71.92,14.15,17.5,11.35,27.14,31.06,25.23,51.38-8.1,86.24-159.36,44.76-196.25,108.03-17.51,30.03-1.17,64.8,28.3,85.09Z"/>
  <path fill="white" d="M668.22,289.85c-70.09,19.78-145.03,20.55-213.74-.1,13.41-33.25,44.31-45.63,72.3-60.72-7.41-19.86-13.43-43.35,5.68-58.96,16.36-13.36,40.54-16,58.62.35,16.19,14.64,17.7,39.06,2.84,58.71,32.06,12.79,59.71,29.65,74.31,60.72Z"/>
  <path fill="white" d="M80.46,214.15c-6.05,15.17,9.07,31.28,18.31,39.08-21.02-3.19-39.32-16.22-44.98-37.94-12.61-48.38,80.61-65.48,112.82-58.85-24.15,26.65-74.81,29.25-86.15,57.7Z"/>
</svg>